<?xml version="1.0" encoding="UTF-8"?>
<!-- Created by Vectric (http://www.vectric.com/) -->
<svg width="600.00000000mm" height="600.00000000mm" viewBox="-300.00000000 -300.00000000 600.00000000 600.00000000" id="svg2" version="1.1" xmlns="http://www.w3.org/2000/svg" xmlns:xlink="http://www.w3.org/1999/xlink" xmlns:inkscape="http://www.inkscape.org/namespaces/inkscape">
    <g inkscape:groupmode="layer" id="b9be5c81-937a-4751-8586-f4532051f86b" inkscape:label="Layer 1" style="stroke:#000000;">
        <path style="fill:none;stroke-width:0.280000;stroke-linecap:round;stroke-linejoin:round;stroke-opacity:1;stroke:#000000;" d="M -0.568622,-99.998383 C -6.647083,-99.963799 -12.747479,-99.370288 -18.718594,-98.232450 C -24.627201,-97.106523 -30.457308,-95.438642 -36.067378,-93.269203 C -41.695578,-91.092754 -47.148087,-88.393852 -52.291678,-85.238374 C -57.547167,-82.014249 -62.524260,-78.286221 -67.096041,-74.149317 C -71.688929,-69.993315 -75.912029,-65.389065 -79.656684,-60.455047 C -83.354671,-55.582518 -86.617265,-50.347433 -89.362619,-44.881202 C -92.122365,-39.386317 -94.382600,-33.611481 -96.086077,-27.703172 C -97.766826,-21.873695 -98.919533,-15.865997 -99.515837,-9.828436 C -100.121447,-3.696652 -100.158030,2.517610 -99.624655,8.656100 C -99.101443,14.677628 -98.025718,20.675933 -96.423745,26.503988 C -94.798389,32.417111 -92.617700,38.204328 -89.936611,43.719631 C -87.266425,49.212504 -84.077679,54.481615 -80.450120,59.395102 C -76.772332,64.376624 -72.612101,69.034949 -68.076395,73.250286 C -63.555989,77.451404 -58.624108,81.248359 -53.406738,84.544192 C -48.294413,87.773666 -42.865836,90.548788 -37.254196,92.801535 C -31.654477,95.049497 -25.826814,96.795571 -19.913583,97.997190 C -13.931820,99.212735 -7.812906,99.880997 -1.709781,99.985382 C 4.520591,100.091944 10.788049,99.611498 16.929384,98.556562 C 23.036150,97.507565 29.070792,95.881618 34.877904,93.720498 C 40.521127,91.620369 45.996007,88.997896 51.169344,85.916810 C 56.461452,82.764988 61.482313,79.106675 66.104146,75.034937 C 70.753015,70.939383 75.037916,66.390480 78.848548,61.505337 C 82.616261,56.675214 85.952181,51.475686 88.772376,46.037650 C 91.610648,40.564757 93.950494,34.803879 95.732336,28.901899 C 97.492284,23.072440 98.722565,17.056710 99.392676,11.004359 C 100.071107,4.876862 100.180911,-1.339945 99.719287,-7.487578 C 99.268427,-13.491859 98.269067,-19.479434 96.745412,-25.304650 C 95.197897,-31.221085 93.096650,-37.019116 90.494307,-42.553266 C 87.899575,-48.071228 84.785158,-53.372826 81.228688,-58.325811 C 77.618618,-63.353443 73.522290,-68.064546 69.044939,-72.338071 C 64.577206,-76.602414 59.691961,-80.467469 54.514199,-83.834373 C 49.434656,-87.137409 44.031570,-89.988501 38.438033,-92.317483 C 32.850187,-94.644096 27.026455,-96.468671 21.109999,-97.746447 C 15.118921,-99.040339 8.982711,-99.784137 2.856004,-99.959208 C 1.714853,-99.991816 0.572977,-100.004879 -0.568622,-99.998383 "/>
    </g>
</svg>
